<svg viewBox="150 80 790 525" xmlns="http://www.w3.org/2000/svg" fill="#2c8a83" stroke="#2c8a83" stroke-width="16" stroke-linejoin="round" stroke-linecap="round"><path d="M787.4 462.7c-7.2-1.2-13.9-3.4-21.3-3.7.8 2.6 2.6 3.3 4 4.2 41.2 25.7 80.1 54.6 119.2 83.3 1.7 1.3 4.3 2.2 2.8 5-1.6 3-4.1 1.2-6.1.4L783.4 511 667 464.5c-5.5-2.3-10.8-.8-16.2-.2q-38.4 4.6-76.9 8.8-4.7.3-5.2 4.7c-2.9 22.8-16.3 40.7-28 59.5-4.9 7.9-9.4 16-14.8 25.2 12 .3 20.2 6.2 27.9 14-25.3-.4-50.4.3-76.4 1.1 2.4-5.1 7-4.9 9.4-8.2-9.7-5.7-18.3 2.5-28.6 2.3 3.8-3.9 8.1-5.5 11.4-8.4a22 22 0 0 1 22-5c5.1 1.6 10.6 1.6 15.8 2.6 2.6.4 4.1-.1 5-2.7 6.8-20.5 16.2-40.2 20.8-61.4.7-3 .6-5.4-1.8-7.7L498 456.9l-2-1.5-1.6 26.1-1 19c0 2.7-1.7 4.6-3.2 6.5-15.4 20.1-30 40.8-44.8 61.4q-1.3 1.8-3.2 5c13.3 1.1 21.7 9.5 31 16.2q-1 2.5-2.3 2.4c-30.6-3-61.1-1.5-91.7 0q-1.3 0-2.1-2.1c3.6-4 9.3-4.7 14.6-8.4-6.6-1.6-11.9-4.7-18.3-2.5q-9.5 3.2-19 6c-1.5.5-3 1.3-4.7.7-.6-1.8.7-2.3 1.6-2.8q11.9-7.5 23.6-15.2a9 9 0 0 1 7-1.4q18.8 2.8 37.5 5.8c3 .5 4.7-.5 6.1-2.8q18.7-30 34.7-61.3c3-6.1 3-13.3 4.5-20 .5-2.5-1.5-3.9-3-5.3-24.7-22.7-49.2-45.5-74.4-67.6-8.5-7.5-14-17.4-20.8-26.2-24.5-31.5-48.4-63.5-73.3-94.9-5.5-7-5.5-14.3-6.2-21.9q-3.9-39.7-7.2-79.5c-.3-3.6-2.1-5.1-5.5-6q-39.2-9-78.2-18.3-13-3-25.7-6.3c-1.6-.4-3.5-.6-3.8-2.7-.1-1.8 1.4-2.6 2.6-3.5l19.6-14.5c5.2-3.7 11.5-4.5 17.5-5.8 37.4-8.5 72.2-24 106.9-40 3-1.4 5.5-1.3 8.5-.3q31.8 10.4 63.7 20.6 3.9 1 6 4.6l44.6 71.2q2 3.2 5.5 5 70.5 37 141 74.3c14.4 7.7 27.1 18 40.4 27.6Q666.6 330 710 362a310 310 0 0 1 35.5 32.2 204 204 0 0 0 47.2 33.9q41.1 23.1 82 47l2.6 1.4c1 .7 1.8 1.6 1.4 3q-.7 2.1-3 1.8-5-.6-9.9-1.7zm-400-338.5c-2.5-1.6-4.5.3-6.5 1.2l-34.2 15.2-42 18.6c-3.6 1.5-5.7 3.1-4.6 7.7 1.2 4.4 1.4 9.1 1.9 13.8 1 10 4.5 20 3 30.1-3 21.4-6.8 42.7-10.2 64-.2 1.4-1 2.9.3 4.2 2.3-.3 3.9-1.8 5.7-3 15.4-9.8 30.6-20 46.3-29.6q40.4-24.3 81.2-48.2c2.8-1.6 3.8-3.1 1.8-6.2zm15.4 195.5-51.1-59c-.1 1.3-.3 1.6-.2 2q17.4 70.6 34.6 141.4c.7 2.8 2.4 3.7 4.6 4.5L500 447.4a969 969 0 0 0 55 17.7c-1.4-1.6-2.7-3.7-4.5-5.3-25-22.8-51-44.4-77-66-9.6-8-19.7-15.6-28.2-24.7-14.6-15.7-28-32.5-42.4-49.4m158.5-10.5-56.8-23 21.9 25q29.1 33.9 57.3 68.6c1.5 2 3.2 3.5 6 4l145.1 23.6c6.3 1 12.5 2.7 19.9 2.3l-39.4-36.5a24 24 0 0 0-7.5-4.8zm26.8 5 104 42.3q-33.5-26-67.8-50.4c-14.6-10.5-28.7-21.9-44.5-30.5-28.7-15.8-58-30.8-87-46-15.5-8.2-31-16.4-47.6-25l1.5 2.5 48.2 67.5q2.6 3.3 6.3 4.7zm-225.3-48.6 85.5 98.9c14.7-28 29.3-54.7 43.2-82.8L353.4 254zm321.5 190 50.3-5.1a14113 14113 0 0 1-148-61.2l-4.8 24.5q-4.9 24.7-10.1 49.3c-.7 3.4.2 4.9 3.6 4.5l8-1q25.2-3 50.5-5.8c16.5-1.8 33-3.5 50.5-5.2M466.6 341 453 367l124.3 15a1578 1578 0 0 0-81.2-97.3zm35 37.2-43.4-5.3c35.8 31.2 72.1 61.2 107.9 93.8 5.2-26.4 10-50.8 15-75.2.7-3.6-1.5-3.8-3.9-4.1q-10.4-1.5-20.8-2.7zm260.6 74 96 20.1q-46.7-27.4-93.8-54.2-2.4-1.2-5.1-1.7l-91.1-14.6-62.7-10.3 13.8 6q54 22.5 108.4 43.5c11 4.3 21.6 9.7 34.5 11.1M471.8 272.6c5.4.8 10.7 2.5 17.3 2.6-18-25.6-35.4-50.5-54-74.8l-82 48.3zm-171.5 21.6c25.8 33.9 52.4 67.2 78.5 101.2l-34.6-141-49.8 32zm451 162.8c-3-2.6-6.6-1.8-10-1.5q-21.5 1.8-42.8 4c-7 .8-14.3.8-22.4 2.8l191.3 76.4A1365 1365 0 0 0 751.3 457m-312.6-26q-20.5-7.5-41-14.6 23.9 22.8 48 44.7c12.4 11.3 24.2 23.4 38.3 32.8 1.3.8 2.3 2.5 4.6 1.7l2.2-40.8c.3-4-1.4-5.6-4.9-6.8zm-97-294 37.4-16.5-.3-1.2-60-19.3-17.9 55zM235 156.5h53.4l-32.9-26.6q-3-2.2-6.6-1-26.4 7.3-52.7 14.8c-6.8 2-11.4 7.4-17 11.2l.5 1.5zm38-19 22.4 17.9 17-52.3-1.2-.7-52.4 23.1zm.4 24.9c-27 .2-54.1-1.5-81.2-.5q4.1 1.3 8.2 2.1l75.7 18c1.8.3 3.8 1.4 5-.7 3.6-5.8 7-11.8 11.2-19zm232 295 24 23.4c6.8 7 15 12 23.8 15.8 3.6 1.6 5.1.9 6-2.8q2-8.5 4.3-16.9c.8-2.6.2-3.8-2.7-4.6q-9-2.3-18.1-5.2l-39.5-12.7-.5.7zM475 493.5c-1.6-1-2.8-2.9-5.4-2.6-4.8 30.8-26.3 53.7-38.7 81 3.6 2 5.5-.3 7.4-2.8l43-59.3c1.8-2.4 4.1-4.5 5-8zM295.4 241l.9-5.9c1.1-12 5.5-23.6 3.4-36-1.7-9.9-2.9-19.9-4.5-31.3l-10.3 18c-.9 1.5-.6 3.2-.5 4.9l7 73.2zm231.2 293-9.9 27.1c4 1.3 4.9-1.5 6-3.5l22.6-37.7 10.5-16.6c-5.9-3-10.9-6.2-17.3-8-2.2 13.5-7.3 25.6-12 38.7m-91.2 44c-6 0-11.9.5-19-.5 3.1 3 4.6 6.8 8.2 6.9q16.4.3 32.3.1c-5.2-5.6-13.2-5-21.5-6.5m81-6.4c8.1.4 16.2-.3 24.2.2a55 55 0 0 0-28-5.2c.2 2.8 1.1 4.2 3.9 5M407 579.8l-12.6 6.5c7.7-1 14.2-.1 21.6-2.4-3.3-1.9-3.6-6.8-9-4.1m-8.2-5.5-19.3-2.8c9.8 5 19.6 6.5 23 3.7zm104.3-7.4-8.8 5c4.5-.1 9 1 13.2-.9-.3-2.5-.8-4.5-4.4-4m-19.3-4.8-1.3-.1c4.1 1.3 8.2 3 12.8 2.3z"/></svg>
